{"title":"The Football League Show 20.09.2014 webrip X264","uid":11071971,"size":878655649,"categoryP":"video","categoryS":"tv_shows","magnet":"?xt=urn:btih:58e53e86f99da541a859dd8b98eb5d1b8b713e7c&amp;dn=The+Football+League+Show+20.09.2014+webrip+X264&amp;tr=udp%3A%2F%2Ftracker.openbittorrent.com%3A80&amp;tr=udp%3A%2F%2Fopen.demonii.com%3A1337&amp;tr=udp%3A%2F%2Ftracker.coppersurfer.tk%3A6969&amp;tr=udp%3A%2F%2Fexodus.desync.com%3A6969","seeders":0,"leechers":0,"uploader":"rugbybill","files":2,"time":1411285562,"description":"SPORT: The Football League Show\nOn: BBC 1 HD \nDate: Saturday 20th September 2014 \nTime: 23:40 to 01:00 \n\nHighlights and analysis from the Football League, presented by Manish Bhasin. Two of the early Championship pacesetters meet as Millwall entertain Nottingham Forest at the Den. Plus extended highlights from Watford's match against Bournemouth and the best of the action from Brighton's clash with struggling Blackpool.\nwebrip.\n\n\nGeneral\nComplete name                            : 2014.09.20.The.Football.League.Show.webrip.x264.mp4\nFormat                                   : MPEG-4\nFormat profile                           : Base Media\nCodec ID                                 : isom\nFile size                                : 838 MiB\nDuration                                 : 1h 18mn\nOverall bit rate mode                    : Variable\nOverall bit rate                         : 1 486 Kbps\n\nVideo\nID                                       : 1\nFormat                                   : AVC\nFormat/Info                              : Advanced Video Codec\nFormat profile                           : &lt;a class=&quot;__cf_email__&quot; href=&quot;/cdn-cgi/l/email-protection&quot; data-cfemail=&quot;a0edc1c9cee0ec938e91&quot;&gt;[email&amp;#160;protected]&lt;/a&gt;&lt;script data-cfhash='f9e31' type=&quot;text/javascript&quot;&gt;\n/* &lt;![CDATA[ */!function(){try{var t=&quot;currentScript&quot;in document?document.currentScript:function(){for(var t=document.getElementsByTagName(&quot;script&quot;),e=t.length;e--;)if(t[e].getAttribute(&quot;data-cfhash&quot;))return t[e]}();if(t&amp;&amp;t.previousSibling){var e,r,n,i,c=t.previousSibling,a=c.getAttribute(&quot;data-cfemail&quot;);if(a){for(e=&quot;&quot;,r=parseInt(a.substr(0,2),16),n=2;a.length-n;n+=2)i=parseInt(a.substr(n,2),16)^r,e+=String.fromCharCode(i);e=document.createTextNode(e),c.parentNode.replaceChild(e,c)}t.parentNode.removeChild(t);}}catch(u){}}()/* ]]&gt; */&lt;/script&gt;\nFormat settings, CABAC                   : Yes\nFormat settings, ReFrames                : 2 frames\nCodec ID                                 : avc1\nCodec ID/Info                            : Advanced Video Coding\nDuration                                 : 1h 18mn\nBit rate mode                            : Constant\nBit rate                                 : 1 404 Kbps\nMaximum bit rate                         : 2 286 Kbps\nWidth                                    : 832 pixels\nHeight                                   : 468 pixels\nDisplay aspect ratio                     : 16:9\nFrame rate mode                          : Constant\nFrame rate                               : 25.000 fps\nColor space                              : YUV\nChroma subsampling                       : 4:2:0\nBit depth                                : 8 bits\nScan type                                : Progressive\nBits/(Pixel*Frame)                       : 0.144\nStream size                              : 783 MiB (93%)\n\nAudio\nID                                       : 2\nFormat                                   : AAC\nFormat/Info                              : Advanced Audio Codec\nFormat profile                           : LC\nCodec ID                                 : 40\nDuration                                 : 1h 18mn\nBit rate mode                            : Variable\nBit rate                                 : 93.5 Kbps\nMaximum bit rate                         : 104 Kbps\nChannel(s)                               : 2 channels\nChannel positions                        : Front: L R\nSampling rate                            : 48.0 KHz\nCompression mode                         : Lossy\nStream size                              : 52.7 MiB (6%)\n","torrent":{"xt":"urn:btih:58e53e86f99da541a859dd8b98eb5d1b8b713e7c","amp;dn":"The+Football+League+Show+20.09.2014+webrip+X264","amp;tr":["udp%3A%2F%2Ftracker.openbittorrent.com%3A80","udp%3A%2F%2Fopen.demonii.com%3A1337","udp%3A%2F%2Ftracker.coppersurfer.tk%3A6969","udp%3A%2F%2Fexodus.desync.com%3A6969"],"infoHash":"58e53e86f99da541a859dd8b98eb5d1b8b713e7c","infoHashBuffer":{"type":"Buffer","data":[88,229,62,134,249,157,165,65,168,89,221,139,152,235,93,27,139,113,62,124]},"announce":[],"urlList":[]}}